<mxfile host="Electron" modified="2024-05-11T12:43:21.647Z" agent="Mozilla/5.0 (Windows NT 10.0; Win64; x64) AppleWebKit/537.36 (KHTML, like Gecko) draw.io/22.1.18 Chrome/120.0.6099.199 Electron/28.1.2 Safari/537.36" etag="kZ8gtwpB91tWmXMVaN0l" version="22.1.18" type="device">
  <diagram name="Page-1" id="6YFyB_6HSimN8OA7gZ-D">
    <mxGraphModel dx="867" dy="1142" grid="1" gridSize="10" guides="1" tooltips="1" connect="1" arrows="1" fold="1" page="1" pageScale="1" pageWidth="850" pageHeight="1100" math="0" shadow="0">
      <root>
        <mxCell id="0" />
        <mxCell id="1" parent="0" />
        <mxCell id="Bzx02a5tPrB540sCEJ9Y-1" value="&lt;font style=&quot;font-size: 18px;&quot;&gt;&lt;b&gt;A&lt;/b&gt;&lt;/font&gt;" style="ellipse;whiteSpace=wrap;html=1;aspect=fixed;" parent="1" vertex="1">
          <mxGeometry x="200" y="520" width="40" height="40" as="geometry" />
        </mxCell>
        <mxCell id="Bzx02a5tPrB540sCEJ9Y-2" value="&lt;font style=&quot;font-size: 18px;&quot;&gt;&lt;b&gt;B&lt;/b&gt;&lt;/font&gt;" style="ellipse;whiteSpace=wrap;html=1;aspect=fixed;" parent="1" vertex="1">
          <mxGeometry x="280" y="520" width="40" height="40" as="geometry" />
        </mxCell>
        <mxCell id="Bzx02a5tPrB540sCEJ9Y-3" value="&lt;font style=&quot;font-size: 18px;&quot;&gt;&lt;b&gt;C&lt;/b&gt;&lt;/font&gt;" style="ellipse;whiteSpace=wrap;html=1;aspect=fixed;" parent="1" vertex="1">
          <mxGeometry x="360" y="520" width="40" height="40" as="geometry" />
        </mxCell>
        <mxCell id="Bzx02a5tPrB540sCEJ9Y-4" value="&lt;font style=&quot;font-size: 18px;&quot;&gt;&lt;b&gt;D&lt;/b&gt;&lt;/font&gt;" style="ellipse;whiteSpace=wrap;html=1;aspect=fixed;" parent="1" vertex="1">
          <mxGeometry x="440" y="520" width="40" height="40" as="geometry" />
        </mxCell>
        <mxCell id="WOe_z6cgpSkD-TzWVATP-1" value="&lt;h1&gt;Disjoint Set&lt;/h1&gt;&lt;p&gt;&lt;font style=&quot;font-size: 18px;&quot;&gt;Also called union find and merge-set&lt;/font&gt;&lt;/p&gt;&lt;p&gt;&lt;font size=&quot;3&quot;&gt;Data structure which keeps track of a set of elements which are partitioned into a number of disjoints (collections of sets which have no common/shared element between them).&amp;nbsp; Each set has a representative which helps in identifying the set.&amp;nbsp; This means that each set of elements is represented by a single element from that set.&amp;nbsp; Like congressional districts, but less dysfunctional.&lt;/font&gt;&lt;/p&gt;&lt;p&gt;&lt;font size=&quot;3&quot;&gt;The data structure is used to determine whether or not two elements belong to the same set, merge sets and find a representative element of the set.&lt;/font&gt;&lt;/p&gt;" style="text;html=1;strokeColor=none;fillColor=none;spacing=5;spacingTop=-20;whiteSpace=wrap;overflow=hidden;rounded=0;" vertex="1" parent="1">
          <mxGeometry x="90" y="90" width="710" height="280" as="geometry" />
        </mxCell>
        <mxCell id="WOe_z6cgpSkD-TzWVATP-3" value="&lt;h1&gt;Make Set(N)&lt;/h1&gt;&lt;p&gt;Used to create the initial set&lt;/p&gt;" style="text;html=1;strokeColor=none;fillColor=none;spacing=5;spacingTop=-20;whiteSpace=wrap;overflow=hidden;rounded=0;" vertex="1" parent="1">
          <mxGeometry x="310" y="420" width="190" height="120" as="geometry" />
        </mxCell>
        <mxCell id="WOe_z6cgpSkD-TzWVATP-4" value="&lt;font style=&quot;font-size: 18px;&quot;&gt;&lt;b&gt;E&lt;/b&gt;&lt;/font&gt;" style="ellipse;whiteSpace=wrap;html=1;aspect=fixed;" vertex="1" parent="1">
          <mxGeometry x="520" y="520" width="40" height="40" as="geometry" />
        </mxCell>
        <mxCell id="WOe_z6cgpSkD-TzWVATP-6" value="&lt;font style=&quot;font-size: 14px;&quot;&gt;Union(A, B)&lt;/font&gt;" style="text;html=1;strokeColor=none;fillColor=none;align=right;verticalAlign=middle;whiteSpace=wrap;rounded=0;" vertex="1" parent="1">
          <mxGeometry x="60" y="650" width="100" height="30" as="geometry" />
        </mxCell>
        <mxCell id="WOe_z6cgpSkD-TzWVATP-7" value="&lt;font style=&quot;font-size: 18px;&quot;&gt;&lt;b&gt;C&lt;/b&gt;&lt;/font&gt;" style="ellipse;whiteSpace=wrap;html=1;aspect=fixed;" vertex="1" parent="1">
          <mxGeometry x="360" y="640" width="40" height="40" as="geometry" />
        </mxCell>
        <mxCell id="WOe_z6cgpSkD-TzWVATP-8" value="&lt;font style=&quot;font-size: 18px;&quot;&gt;&lt;b&gt;D&lt;/b&gt;&lt;/font&gt;" style="ellipse;whiteSpace=wrap;html=1;aspect=fixed;" vertex="1" parent="1">
          <mxGeometry x="440" y="640" width="40" height="40" as="geometry" />
        </mxCell>
        <mxCell id="WOe_z6cgpSkD-TzWVATP-9" value="&lt;font style=&quot;font-size: 18px;&quot;&gt;&lt;b&gt;E&lt;/b&gt;&lt;/font&gt;" style="ellipse;whiteSpace=wrap;html=1;aspect=fixed;" vertex="1" parent="1">
          <mxGeometry x="520" y="640" width="40" height="40" as="geometry" />
        </mxCell>
        <mxCell id="WOe_z6cgpSkD-TzWVATP-10" value="&lt;font style=&quot;font-size: 18px;&quot;&gt;&lt;b&gt;AB&lt;/b&gt;&lt;/font&gt;" style="ellipse;whiteSpace=wrap;html=1;aspect=fixed;" vertex="1" parent="1">
          <mxGeometry x="230" y="620" width="60" height="60" as="geometry" />
        </mxCell>
        <mxCell id="WOe_z6cgpSkD-TzWVATP-11" value="&lt;font style=&quot;font-size: 14px;&quot;&gt;Union(A, E)&lt;/font&gt;" style="text;html=1;strokeColor=none;fillColor=none;align=right;verticalAlign=middle;whiteSpace=wrap;rounded=0;" vertex="1" parent="1">
          <mxGeometry x="60" y="770" width="100" height="30" as="geometry" />
        </mxCell>
        <mxCell id="WOe_z6cgpSkD-TzWVATP-12" value="&lt;font style=&quot;font-size: 18px;&quot;&gt;&lt;b&gt;ABE&lt;/b&gt;&lt;/font&gt;" style="ellipse;whiteSpace=wrap;html=1;aspect=fixed;" vertex="1" parent="1">
          <mxGeometry x="230" y="740" width="60" height="60" as="geometry" />
        </mxCell>
        <mxCell id="WOe_z6cgpSkD-TzWVATP-13" value="&lt;font style=&quot;font-size: 18px;&quot;&gt;&lt;b&gt;C&lt;/b&gt;&lt;/font&gt;" style="ellipse;whiteSpace=wrap;html=1;aspect=fixed;" vertex="1" parent="1">
          <mxGeometry x="360" y="760" width="40" height="40" as="geometry" />
        </mxCell>
        <mxCell id="WOe_z6cgpSkD-TzWVATP-14" value="&lt;font style=&quot;font-size: 18px;&quot;&gt;&lt;b&gt;D&lt;/b&gt;&lt;/font&gt;" style="ellipse;whiteSpace=wrap;html=1;aspect=fixed;" vertex="1" parent="1">
          <mxGeometry x="440" y="760" width="40" height="40" as="geometry" />
        </mxCell>
      </root>
    </mxGraphModel>
  </diagram>
</mxfile>
